# AST/ASF file generated using VICON BodyLanguage
# -----------------------------------------------
:version 1.10
:name VICON
:units
  mass 1.0
  length 0.45
  angle deg
:documentation
   .ast/.asf automatically generated from VICON data using
   VICON BodyBuilder and BodyLanguage model FoxedUp or BRILLIANT.MOD
:root
   order TX TY TZ RX RY RZ
   axis XYZ
   position 0 0 0  
   orientation 0 0 0 
:bonedata
  begin
     id 1 
     name lhipjoint
     direction 0.630305 -0.712092 0.309259 
     length 2.29033 
     axis 0 0 0  XYZ
  end
  begin
     id 2 
     name lfemur
     direction 0.34202 -0.939693 0  
     length 6.43538  
     axis 0 0 20  XYZ
    dof rx ry rz
    limits (-160.0 20.0)
           (-70.0 70.0)
           (-60.0 70.0)
  end
  begin
     id 3 
     name ltibia
     direction 0.34202 -0.939693 0   
     length 7.43097   
     axis 0 0 20   XYZ
    dof rx
    limits (-10.0 170.0)
  end
  begin
     id 4 
     name lfoot
     direction 0.0334653 -0.0919451 0.995202   
     length 1.78438   
     axis -90 7.62852e-016 20   XYZ
    dof rx rz
    limits (-45.0 90.0)
           (-70.0 20.0)
  end
  begin
     id 5 
     name ltoes
     direction 1.53535e-011 -4.21933e-011 1   
     length 0.90832   
     axis -90 7.62852e-016 20   XYZ
    dof rx
    limits (-90.0 20.0)
  end
  begin
     id 6 
     name rhipjoint
     direction -0.682059 -0.67077 0.291312   
     length 2.43143  
     axis 0 0 0  XYZ 
  end
  begin
     id 7 
     name rfemur
     direction -0.34202 -0.939693 0   
     length 6.63488   
     axis 0 0 -20   XYZ
    dof rx ry rz
    limits (-160.0 20.0)
           (-70.0 70.0)
           (-70.0 60.0)
  end
  begin
     id 8 
     name rtibia
     direction -0.34202 -0.939693 0   
     length 6.86532   
     axis 0 0 -20   XYZ
    dof rx
    limits (-10.0 170.0)
 end
 begin
     id 9 
     name rfoot
     direction -0.105199 -0.289033 0.951521   
     length 1.77126  
     axis -90 -7.62852e-016 -20   XYZ
    dof rx rz
    limits (-45.0 90.0)
           (-20.0 70.0)
  end
  begin
     id 10 
     name rtoes
     direction -1.53551e-011 -4.21978e-011 1   
     length 0.889273   
     axis -90 -7.62852e-016 -20   XYZ
    dof rx
    limits (-90.0 20.0)
  end
  begin
     id 11 
     name lowerback
     direction -0.0514305 0.998089 0.034245   
     length 2.02077   
     axis 0 0 0   XYZ
    dof rx ry rz
    limits (-20.0 45.0)
           (-30.0 30.0)
           (-30.0 30.0)
  end
  begin
     id 12 
     name upperback
     direction 0.0203189 0.999449 -0.0262315   
     length 2.01413   
     axis 0 0 0   XYZ
    dof rx ry rz
    limits (-20.0 45.0)
           (-30.0 30.0)
           (-30.0 30.0)
  end
  begin
     id 13 
     name thorax
     direction 0.0452736 0.998142 -0.0407729   
     length 2.02986   
     axis 0 0 0   XYZ
    dof rx ry rz
    limits (-20.0 45.0)
           (-30.0 30.0)
           (-30.0 30.0)
  end
  begin
     id 14 
     name lowerneck
     direction -0.0180464 0.999645 -0.0195774   
     length 1.59034   
     axis 0 0 0   XYZ
    dof rx ry rz
    limits (-20.0 45.0)
           (-30.0 30.0)
           (-30.0 30.0)
  end
  begin
     id 15 
     name upperneck
     direction 0.0732272 0.979935 -0.18538   
     length 1.57486   
     axis 0 0 0   XYZ
    dof rx ry rz
    limits (-20.0 45.0)
           (-30.0 30.0)
           (-30.0 30.0)
  end
  begin
     id 16
     name head
     direction 0.0252963 0.997909 -0.059472  
     length 1.60334  
     axis 0 0 0   XYZ
    dof rx ry rz
    limits (-20.0 45.0)
           (-30.0 30.0)
           (-30.0 30.0)
  end
  begin
     id 17 
     name lclavicle
     direction 0.943819 0.330449 0.00315172  
     length 3.50322  
     axis 0 0 0   XYZ
    dof ry rz
    limits (-20.0 10.0)
           (0.0 20.0)
  end
  begin
     id 18 
     name lhumerus
     direction 1 -4.48949e-011 2.22502e-028   
     length 4.63208   
     axis 180 -30 -90   XYZ
    dof rx ry rz
    limits (-60.0 90.0)
           (-90.0 90.0)
           (-90.0 90.0)
  end
  begin
     id 19
     name lradius
     direction 1 -4.48967e-011 -4.10197e-027   
     length 3.41924   
     axis 180 -30 -90   XYZ
    dof rx
    limits (-10.0 170.0)
  end
  begin
     id 20
     name lwrist
     direction 1 -4.48987e-011 -1.24264e-027   
     length 1.70962   
     axis 2.50585e-015 90 90   XYZ
    dof ry
    limits (-180.0 0.0)
 end
  begin
     id 21 
     name lhand
     direction 1 -4.48983e-011 -2.48528e-027   
     length 0.62537   
     axis 1.58582e-015 90 90   XYZ
    dof rx rz
    limits (-90.0 90.0)
           (-45.0 45.0)
  end
  begin
     id 22 
     name lfingers
     direction 1 -4.48896e-011 -4.97056e-027   
     length 0.50419   
     axis 3.17164e-015 90 90   XYZ
    dof rx
    limits (0.0 90.0)
  end
  begin
     id 23
     name lthumb
     direction 0.707107 -6.34803e-011 0.707107   
     length 0.723919   
     axis -90 45 2.85299e-015   XYZ
    dof rx rz
    limits (-45.0 45.0)
           (-45.0 45.0)
  end
  begin
     id 24 
     name rclavicle
     direction -0.964499 0.260664 -0.0423695   
     length 3.91997  
     axis 0 0 0   XYZ 
    dof ry rz
    limits (-10.0 20.0)
           (-20.0 0.0)
  end
  begin
     id 25 
     name rhumerus
     direction -1 -4.48957e-011 -1.98656e-027  
     length 4.4064   
     axis 180 30 90   XYZ
    dof rx ry rz
    limits (-90.0 60.0)
           (-90.0 90.0)
           (-90.0 90.0)
  end
  begin
     id 26 
     name rradius
     direction -1 -4.48968e-011 1.96972e-027   
     length 3.44675   
     axis 180 30 90   XYZ
    dof rx
    limits (-10.0 170.0)
  end
  begin
     id 27 
     name rwrist
     direction -1 -4.48974e-011 -1.24264e-027   
     length 1.72338   
     axis 2.50585e-015 -90 -90   XYZ
    dof ry
    limits (-180.0 0.0)
  end
  begin
     id 28
     name rhand
     direction -1 -4.48901e-011 -2.48528e-027   
     length 0.513674   
     axis 1.58582e-015 -90 -90   XYZ
    dof rx rz
    limits (-90.0 90.0)
           (-45.0 45.0)
  end
  begin
     id 29
     name rfingers
     direction -1 -4.48946e-011 -4.97056e-027   
     length 0.414137   
     axis 3.17164e-015 -90 -90   XYZ
    dof rx
    limits (0.0 90.0)
  end
  begin
     id 30
     name rthumb
     direction -0.707107 -6.34859e-011 0.707107   
     length 0.59462   
     axis -90 -45 -2.85299e-015   XYZ
    dof rx rz
    limits (-45.0 45.0)
           (-45.0 45.0)
  end
:hierarchy
  begin
    root lhipjoint rhipjoint lowerback
    lhipjoint lfemur
    lfemur ltibia
    ltibia lfoot
    lfoot ltoes
    rhipjoint rfemur
    rfemur rtibia
    rtibia rfoot
    rfoot rtoes
    lowerback upperback
    upperback thorax
    thorax lowerneck lclavicle rclavicle
    lowerneck upperneck
    upperneck head
    lclavicle lhumerus
    lhumerus lradius
    lradius lwrist
    lwrist lhand lthumb
    lhand lfingers
    rclavicle rhumerus
    rhumerus rradius
    rradius rwrist
    rwrist rhand rthumb
    rhand rfingers
  end

#!OML:ASF E:\inclinewalkrobotboard\Project 1\Capture day 1\Session 1\subject1.ASF
:FULLY-SPECIFIED
:DEGREES
32
root 11.4286 15.7407 0.44215 -21.9973 -35.6083 1.60696
lowerback 21.0383 1.19909 -2.84004
upperback 14.8041 0.586892 1.84468
thorax 4.39572 -0.239839 3.46928
lowerneck -6.72747 -0.877289 -4.45104
upperneck 0.0267818 -0.835405 0.0327703
head 1.15945 -0.431248 0.73481
rclavicle 3.18055e-015 6.59965e-014
rhumerus -21.7726 -7.42246 -88.2275
rradius 32.3091
rwrist -1.57444
rhand -12.5818 -24.2871
rfingers 7.12502
rthumb 13.4963 -53.8298
lclavicle 3.18055e-015 6.59965e-014
lhumerus -14.2771 -6.6963 95.0236
lradius 24.4498
lwrist 1.14422
lhand -20.3123 -35.951
lfingers 7.12502
lthumb 6.03829 -6.05706
rfemur -67.5096 -7.82053 21.1546
rtibia 122.666
rfoot -22.8989 1.8251
rtoes -23.2472
lfemur -70.7964 -1.73417 -28.14
ltibia 126.434
lfoot -17.9438 2.77352
ltoes -64.2262
33
root 11.4302 15.7435 0.442937 -22.0005 -35.5694 1.57552
lowerback 21.043 1.15681 -2.77629
upperback 14.8263 0.540873 1.81873
thorax 4.42239 -0.258214 3.41293
lowerneck -6.72568 -0.870374 -4.43801
upperneck -0.00854868 -0.828554 0.0686785
head 1.14794 -0.426607 0.743996
rclavicle 2.76311e-014 -6.75868e-015
rhumerus -21.6448 -7.26106 -88.3271
rradius 32.1597
rwrist -1.2582
rhand -12.9904 -24.9279
rfingers 7.12502
rthumb 13.1024 -54.4963
lclavicle 2.76311e-014 -6.75868e-015
lhumerus -14.2669 -6.60224 94.9731
lradius 24.4854
lwrist 1.08948
lhand -20.1162 -35.7985
lfingers 7.12502
lthumb 6.22767 -5.91009
rfemur -67.4434 -7.92735 21.1567
rtibia 122.644
rfoot -22.9374 1.78926
rtoes -23.6432
lfemur -70.7318 -1.85327 -28.1405
ltibia 126.41
lfoot -18.0134 2.66728
ltoes -63.8462
34
root 11.4304 15.7463 0.443966 -22.0559 -35.5376 1.65116
lowerback 21.0698 1.15426 -2.83962
upperback 14.8148 0.52746 1.79811
thorax 4.39742 -0.268051 3.42876
lowerneck -6.71071 -0.872597 -4.41728
upperneck -0.0258013 -0.834085 0.064752
head 1.13976 -0.429138 0.739003
rclavicle -5.56597e-014 2.82274e-014
rhumerus -21.6255 -7.10687 -88.4068
rradius 31.926
rwrist -0.648879
rhand -13.7629 -24.8266
rfingers 7.12502
rthumb 12.3577 -54.4413
lclavicle -5.56597e-014 2.82274e-014
lhumerus -14.3087 -6.37098 94.9601
lradius 24.5165
lwrist 0.952251
lhand -19.8276 -35.6492
lfingers 7.12502
lthumb 6.50621 -5.7691
rfemur -67.4099 -7.99281 21.0665
rtibia 122.648
rfoot -22.9474 1.80141
rtoes -23.9659
lfemur -70.654 -1.95658 -28.2113
ltibia 126.367
lfoot -18.0607 2.49874
ltoes -63.3944
35
root 11.4296 15.7443 0.444647 -22.0421 -35.5421 1.64693
lowerback 21.0859 1.1515 -2.89726
upperback 14.8116 0.513378 1.83628
thorax 4.3875 -0.281848 3.50503
lowerneck -6.7218 -0.847566 -4.42376
upperneck -0.0358029 -0.798103 -0.037022
head 1.13673 -0.413012 0.70916
rclavicle 9.14409e-014 -6.71892e-014
rhumerus -21.5795 -7.20973 -88.3139
rradius 31.8647
rwrist -0.852492
rhand -13.3385 -24.4174
rfingers 7.12502
rthumb 12.7669 -54.0071
lclavicle 9.14409e-014 -6.71892e-014
lhumerus -14.3315 -6.22963 95.018
lradius 24.5339
lwrist 0.950344
lhand -19.9426 -35.6836
lfingers 7.12502
lthumb 6.39526 -5.80014
rfemur -67.4192 -7.96248 21.0633
rtibia 122.662
rfoot -22.8821 1.88351
rtoes -23.3636
lfemur -70.6854 -1.92297 -28.2136
ltibia 126.389
lfoot -18.026 2.5074
ltoes -63.4379
36
root 11.4303 15.7434 0.442858 -21.9764 -35.5332 1.57633
lowerback 21.0524 1.11129 -2.86641
upperback 14.8385 0.464988 1.85599
thorax 4.43891 -0.307242 3.51703
lowerneck -6.80447 -0.818823 -4.43694
upperneck 0.00990187 -0.752549 -0.11097
head 1.16406 -0.392563 0.689697
rclavicle -1.82882e-014 7.27552e-014
rhumerus -21.5421 -7.05039 -88.3556
rradius 31.8818
rwrist -0.635699
rhand -13.5047 -24.546
rfingers 7.12502
rthumb 12.6067 -54.1456
lclavicle -1.82882e-014 7.27552e-014
lhumerus -14.2845 -6.14063 95.0145
lradius 24.5445
lwrist 1.00949
lhand -19.996 -35.7388
lfingers 7.12502
lthumb 6.34366 -5.85382
rfemur -67.4451 -7.95876 21.1305
rtibia 122.65
rfoot -22.7507 1.94999
rtoes -22.5489
lfemur -70.7621 -1.92187 -28.1568
ltibia 126.405
lfoot -17.9639 2.63176
ltoes -63.6446
37
root 11.4307 15.7456 0.441726 -21.9665 -35.5108 1.59705
lowerback 20.9825 1.09166 -2.87398
upperback 14.8632 0.439581 1.8484
thorax 4.50401 -0.322121 3.51739
lowerneck -6.88579 -0.84249 -4.51367
upperneck 0.0850447 -0.773645 -0.0561565
head 1.20384 -0.403528 0.719624
rclavicle 6.1822e-014 -2.38542e-015
rhumerus -21.6101 -6.93019 -88.4085
rradius 31.9743
rwrist -0.327425
rhand -13.9924 -24.2846
rfingers 7.12502
rthumb 12.1364 -53.9126
lclavicle 6.1822e-014 -2.38542e-015
lhumerus -14.2173 -6.09579 95.0046
lradius 24.5186
lwrist 1.03768
lhand -19.9045 -35.7276
lfingers 7.12502
lthumb 6.43204 -5.84531
rfemur -67.4745 -7.98871 21.1107
rtibia 122.641
rfoot -22.6765 1.97684
rtoes -22.3751
lfemur -70.7725 -1.97073 -28.1682
ltibia 126.379
lfoot -17.9522 2.69078
ltoes -63.7343
38
root 11.4298 15.747 0.443327 -21.9606 -35.506 1.59304
lowerback 20.9671 1.09409 -2.84992
upperback 14.85 0.447846 1.86422
thorax 4.49562 -0.315998 3.51943
lowerneck -6.86168 -0.884592 -4.60196
upperneck 0.100172 -0.825117 0.0148708
head 1.20711 -0.428263 0.755513
rclavicle -5.26779e-014 5.725e-014
rhumerus -21.7351 -6.92545 -88.3865
rradius 31.9908
rwrist -0.202724
rhand -14.4387 -23.4643
rfingers 7.12502
rthumb 11.7061 -53.1173
lclavicle -5.26779e-014 5.725e-014
lhumerus -14.2199 -6.11353 95.0509
lradius 24.4828
lwrist 1.04952
lhand -19.8891 -35.6602
lfingers 7.12502
lthumb 6.44692 -5.77827
rfemur -67.4488 -8.01245 21.1056
rtibia 122.639
rfoot -22.7173 2.00704
rtoes -22.3876
lfemur -70.7673 -1.9819 -28.1514
ltibia 126.373
lfoot -17.9696 2.48997
ltoes -63.4033
39
root 11.4293 15.7463 0.44405 -21.9251 -35.5177 1.55406
lowerback 20.9946 1.09901 -2.80731
upperback 14.8097 0.461994 1.88394
thorax 4.43441 -0.303925 3.51412
lowerneck -6.81151 -0.903411 -4.62811
upperneck 0.0969113 -0.85118 0.0361734
head 1.1984 -0.440783 0.765864
rclavicle 1.82882e-014 1.51076e-014
rhumerus -21.7653 -6.97908 -88.3185
rradius 32.0204
rwrist -0.575067
rhand -14.0612 -23.5685
rfingers 7.12502
rthumb 12.0701 -53.2004
lclavicle 1.82882e-014 1.51076e-014
lhumerus -14.2836 -6.15383 95.0881
lradius 24.4879
lwrist 1.0374
lhand -19.8894 -35.587
lfingers 7.12502
lthumb 6.44664 -5.70513
rfemur -67.4376 -7.99367 21.1479
rtibia 122.638
rfoot -22.7526 2.01698
rtoes -22.3357
lfemur -70.8085 -1.98428 -28.1014
ltibia 126.388
lfoot -17.9647 2.35681
ltoes -63.2108
40
root 11.4292 15.7449 0.44436 -21.9292 -35.5125 1.55433
lowerback 20.9911 1.10307 -2.80413
upperback 14.8179 0.467613 1.88569
thorax 4.44494 -0.301331 3.51331
lowerneck -6.80159 -0.901818 -4.61385
upperneck 0.0775425 -0.851173 0.0441484
head 1.19043 -0.440275 0.765881
rclavicle -5.76476e-014 1.47101e-014
rhumerus -21.7661 -6.86891 -88.3202
rradius 32.1368
rwrist -0.66665
rhand -13.9204 -24.2903
rfingers 7.12502
rthumb 12.2058 -53.9142
lclavicle -5.76476e-014 1.47101e-014
lhumerus -14.2715 -6.15939 95.1001
lradius 24.4823
lwrist 0.975111
lhand -20.058 -35.7026
lfingers 7.12502
lthumb 6.28379 -5.81583
rfemur -67.4516 -7.98296 21.1421
rtibia 122.649
rfoot -22.7742 1.97847
rtoes -22.5305
lfemur -70.7886 -1.99226 -28.1245
ltibia 126.398
lfoot -17.9637 2.56204
ltoes -63.643
41
root 11.429 15.7449 0.445995 -21.9751 -35.5113 1.55675
lowerback 20.9788 1.10525 -2.78332
upperback 14.8684 0.471604 1.88353
thorax 4.50855 -0.300571 3.49867
lowerneck -6.80313 -0.896158 -4.55205
upperneck 0.0554953 -0.847904 -0.00262903
head 1.18257 -0.439083 0.740618
rclavicle -3.39922e-014 2.22639e-014
rhumerus -21.6877 -6.8742 -88.3161
rradius 32.1234
rwrist -0.629754
rhand -13.8859 -24.6466
rfingers 7.12502
rthumb 12.2391 -54.2685
lclavicle -3.39922e-014 2.22639e-014
lhumerus -14.1957 -6.14013 95.1045
lradius 24.4679
lwrist 0.950993
lhand -20.1998 -35.8295
lfingers 7.12502
lthumb 6.1469 -5.93864
rfemur -67.4053 -7.98257 21.12
rtibia 122.652
rfoot -22.8174 1.93476
rtoes -22.932
lfemur -70.702 -1.97358 -28.166
ltibia 126.406
lfoot -18.0036 2.67423
ltoes -63.7544
